<?xml version="1.0" standalone="no"?>
<!DOCTYPE svg PUBLIC "-//W3C//DTD SVG 20010904//EN"
 "http://www.w3.org/TR/2001/REC-SVG-20010904/DTD/svg10.dtd">
<svg version="1.0" xmlns="http://www.w3.org/2000/svg"
 width="288.000000pt" height="288.000000pt" viewBox="0 0 288.000000 288.000000"
 preserveAspectRatio="xMidYMid meet">
<metadata>
Created by potrace 1.14, written by Peter Selinger 2001-2017
</metadata>
<g transform="translate(0.000000,288.000000) scale(0.100000,-0.100000)"
fill="#000000" stroke="none">
<path d="M1265 2870 c-91 -14 -119 -19 -198 -40 -244 -64 -457 -188 -642 -374
-150 -150 -230 -272 -328 -496 -115 -265 -124 -691 -21 -983 133 -372 398
-670 748 -837 94 -44 203 -85 257 -96 13 -2 65 -12 114 -22 71 -15 127 -18
260 -16 94 1 182 5 196 7 326 59 582 189 805 412 148 147 220 256 325 490 22
50 50 144 71 243 32 153 32 409 -1 567 -24 117 -73 260 -126 366 -129 256
-378 505 -634 634 -71 35 -242 101 -282 108 -13 3 -60 13 -104 22 -87 19 -351
28 -440 15z"/>
</g>
</svg>
